<?xml version="1.0" standalone="no"?>
<!DOCTYPE svg PUBLIC "-//W3C//DTD SVG 20010904//EN"
 "http://www.w3.org/TR/2001/REC-SVG-20010904/DTD/svg10.dtd">
<svg version="1.0" xmlns="http://www.w3.org/2000/svg"
 width="225.000000pt" height="225.000000pt" viewBox="0 0 225.000000 225.000000"
 preserveAspectRatio="xMidYMid meet">

<g transform="translate(0.000000,225.000000) scale(0.100000,-0.100000)"
fill="#000000" stroke="none">
<path d="M902 2199 c-398 -84 -717 -384 -828 -781 -32 -115 -44 -335 -24 -456
36 -229 140 -433 305 -598 122 -123 250 -204 415 -261 132 -47 208 -58 375
-57 179 2 288 26 439 97 125 60 205 115 303 210 438 425 441 1123 8 1552 -160
158 -359 262 -575 301 -111 20 -306 17 -418 -7z m409 -4 c406 -71 738 -370
853 -768 74 -255 50 -518 -68 -762 -110 -225 -274 -391 -491 -499 -304 -151
-645 -151 -950 -1 -129 63 -216 127 -310 226 -355 377 -395 943 -96 1365 236
336 659 510 1062 439z"/>
<path d="M1040 2079 l0 -71 50 4 c46 3 50 1 50 -19 0 -13 5 -23 10 -23 6 0 10
27 10 60 0 47 3 60 15 60 12 0 15 -13 15 -60 0 -41 4 -60 13 -60 9 0 11 23 9
90 -2 57 -7 88 -13 84 -6 -3 -8 -12 -5 -20 3 -9 -2 -14 -14 -14 -13 0 -20 7
-20 20 0 11 -4 20 -10 20 -6 0 -10 -27 -10 -60 l0 -60 -40 0 -40 0 0 50 c0 47
2 50 25 50 14 0 25 5 25 10 0 6 -16 10 -35 10 l-35 0 0 -71z"/>
<path d="M830 2106 c0 -2 9 -25 20 -51 11 -26 18 -50 15 -55 -2 -4 -32 -18
-65 -30 -56 -21 -85 -40 -61 -40 11 0 97 35 123 50 13 7 18 5 23 -10 7 -21 25
-28 25 -10 0 18 -63 150 -71 150 -5 0 -9 -2 -9 -4z"/>
<path d="M1380 2100 c0 -10 100 -43 108 -36 3 4 -4 9 -16 13 -12 3 -22 11 -22
17 0 7 -15 12 -35 12 -19 0 -35 -3 -35 -6z"/>
<path d="M720 2062 c-18 -14 -22 -25 -16 -45 5 -22 12 -27 37 -27 46 0 69 16
69 49 0 44 -49 56 -90 23z m54 2 c38 -14 5 -71 -34 -59 -25 8 -26 40 -2 54 21
13 17 12 36 5z"/>
<path d="M1366 2054 c-13 -34 49 -73 85 -54 25 14 24 35 -3 54 -29 21 -74 21
-82 0z m77 -30 c-4 -16 -40 -15 -53 1 -12 14 -11 18 1 25 15 10 56 -11 52 -26z"/>
<path d="M1511 2023 c-8 -21 -16 -44 -18 -50 -3 -7 0 -13 5 -13 6 0 14 9 17
21 5 14 13 19 26 16 23 -6 26 8 4 17 -13 4 -14 10 -5 26 8 15 8 20 -3 20 -7 0
-19 -17 -26 -37z"/>
<path d="M1350 1992 c0 -6 29 -20 65 -32 58 -19 64 -24 55 -40 -6 -12 -7 -21
-1 -25 10 -5 31 24 31 42 0 5 -30 20 -67 34 -37 13 -71 26 -75 27 -4 2 -8 -1
-8 -6z"/>
<path d="M470 1924 c-57 -49 -67 -70 -38 -88 13 -8 22 -5 43 14 13 13 28 20
32 16 5 -4 -7 -21 -26 -37 -19 -16 -32 -32 -28 -35 5 -6 30 13 141 108 5 4 7
11 3 15 -4 3 -21 -6 -37 -22 -16 -16 -33 -25 -37 -21 -5 4 5 19 21 32 15 14
26 28 22 31 -3 3 -30 -15 -61 -41 -78 -67 -95 -48 -19 20 72 65 60 71 -16 8z"/>
<path d="M1700 1953 c0 -4 21 -26 47 -49 l47 -41 -27 -35 c-48 -62 -29 -68 22
-6 l34 41 -34 29 c-56 47 -89 70 -89 61z"/>
<path d="M965 1905 c-87 -19 -202 -66 -271 -110 -86 -56 -202 -179 -251 -266
-71 -125 -96 -214 -101 -361 -5 -156 12 -245 72 -373 186 -394 648 -562 1044
-379 238 109 402 322 447 579 26 149 14 281 -39 419 -94 248 -332 448 -590
495 -79 15 -236 13 -311 -4z m360 -19 c311 -85 536 -347 576 -670 42 -334
-164 -678 -483 -805 -209 -84 -430 -76 -633 24 -410 200 -560 709 -324 1101
106 176 298 312 504 358 87 19 274 15 360 -8z"/>
<path d="M1025 1679 c-49 -16 -158 -43 -242 -61 l-153 -32 0 -363 c0 -350 1
-365 21 -405 46 -90 190 -197 376 -278 l95 -42 46 17 c74 28 201 94 267 137
79 53 131 103 163 158 l27 45 0 367 0 366 -40 7 c-86 13 -311 67 -382 90 -40
14 -77 25 -81 24 -4 -1 -47 -14 -97 -30z m256 -195 c32 -34 33 -100 3 -141
-33 -44 -93 -81 -166 -100 l-68 -17 0 -46 c0 -63 21 -90 70 -90 59 0 116 49
163 140 35 68 38 71 32 35 -15 -89 -84 -188 -157 -226 -44 -23 -112 -25 -152
-4 -15 8 -30 15 -32 15 -2 0 -4 -99 -4 -220 0 -121 -3 -220 -8 -220 -18 0
-161 92 -209 134 -73 66 -93 112 -93 219 l0 87 90 0 c106 0 147 14 183 62 49
63 58 188 21 261 -17 32 -69 67 -101 67 -12 0 -25 5 -28 10 -4 6 6 10 23 10
16 0 50 3 76 6 l46 7 0 -58 0 -57 45 50 c86 96 213 132 266 76z m217 -41 c23
-6 23 -6 20 -153 -3 -129 -5 -151 -22 -169 -24 -26 -66 -27 -97 -2 -23 19 -24
25 -27 182 l-4 162 54 -7 c29 -4 63 -10 76 -13z m-675 -64 c60 -16 85 -79 67
-169 -12 -63 -55 -100 -115 -100 l-45 0 0 140 0 140 28 0 c15 0 44 -5 65 -11z
m537 -324 c59 -30 201 -10 217 32 14 35 18 2 13 -109 -6 -143 -13 -162 -93
-234 -52 -47 -186 -134 -207 -134 -6 0 -10 96 -10 263 l0 262 26 -33 c14 -18
39 -39 54 -47z m-310 -255 c0 -27 -4 -50 -10 -50 -5 0 -10 16 -10 35 0 27 -4
35 -17 35 -16 1 -16 2 1 15 31 23 36 18 36 -35z m64 34 c17 -44 -6 -93 -37
-81 -13 5 -22 71 -11 88 9 15 41 10 48 -7z m126 14 c-2 -24 -30 -93 -40 -96
-13 -5 -10 20 6 62 4 11 0 16 -15 16 -15 0 -23 -10 -31 -40 -6 -22 -16 -40
-21 -40 -11 0 -8 26 7 64 4 11 1 16 -10 16 -9 0 -16 5 -16 10 0 6 27 10 60 10
33 0 60 -1 60 -2z"/>
<path d="M1152 1445 c-39 -44 -99 -171 -87 -183 10 -11 76 31 106 68 32 38 62
121 52 145 -9 26 -30 17 -71 -30z"/>
<path d="M1081 814 c0 -11 3 -14 6 -6 3 7 2 16 -1 19 -3 4 -6 -2 -5 -13z"/>
<path d="M1650 1875 c-15 -16 -30 -23 -42 -19 -30 9 -21 -1 51 -60 74 -61 102
-74 56 -26 l-29 30 24 25 c33 35 16 45 -19 11 -23 -22 -30 -24 -39 -13 -9 11
-6 19 13 37 14 13 25 27 25 32 0 15 -16 8 -40 -17z"/>
<path d="M538 1831 c-34 -34 -38 -43 -28 -60 15 -28 52 -27 88 4 36 30 45 60
25 80 -23 24 -42 18 -85 -24z m75 7 c7 -20 -11 -46 -42 -63 -26 -13 -30 -13
-42 1 -11 14 -9 20 19 45 35 31 58 37 65 17z"/>
<path d="M300 1585 c-10 -11 -10 -19 -2 -27 15 -15 44 -2 40 19 -4 23 -22 27
-38 8z"/>
<path d="M1924 1585 c-7 -18 3 -35 22 -35 20 0 30 30 13 41 -20 12 -29 11 -35
-6z"/>
<path d="M126 1314 c-8 -64 13 -110 56 -122 67 -18 111 16 123 94 l6 41 -78 7
c-42 4 -83 11 -89 17 -8 6 -13 -4 -18 -37z m147 -10 c42 -13 -7 -94 -56 -94
-41 0 -77 36 -77 77 l0 35 58 -6 c31 -4 65 -9 75 -12z"/>
<path d="M1950 1345 c0 -9 9 -15 23 -15 12 -1 33 -7 46 -14 l24 -13 -37 -29
c-20 -16 -36 -38 -36 -49 0 -16 6 -13 38 17 45 43 72 58 106 58 20 0 26 5 26
22 0 17 -3 19 -12 10 -18 -18 -77 -14 -127 8 -52 24 -51 24 -51 5z"/>
<path d="M1976 1143 c-9 -56 -7 -93 4 -93 6 0 10 11 10 25 0 25 1 25 80 25 47
0 80 4 80 10 0 6 -34 10 -81 10 l-81 0 4 30 c7 44 -8 37 -16 -7z"/>
<path d="M174 1133 c-38 -7 -67 -48 -67 -94 0 -35 6 -48 32 -71 40 -36 80 -36
120 -2 25 21 31 33 31 66 0 52 -14 77 -55 94 -19 8 -36 13 -37 13 -2 -1 -13
-4 -24 -6z m81 -48 c32 -31 32 -59 0 -90 -47 -48 -135 -22 -135 40 0 14 11 37
25 50 32 33 78 33 110 0z"/>
<path d="M1960 988 c0 -11 25 -19 90 -29 66 -11 90 -12 90 -3 0 6 -33 17 -77
24 -42 6 -83 14 -90 17 -7 3 -13 -1 -13 -9z"/>
<path d="M297 913 c-3 -5 -40 -20 -81 -33 -42 -13 -76 -27 -76 -32 0 -11 2
-11 75 17 36 13 65 22 65 20 0 -2 -22 -39 -50 -81 -27 -42 -50 -80 -50 -85 0
-4 40 6 90 23 49 17 87 34 85 38 -3 4 -34 -3 -70 -16 -36 -13 -65 -21 -65 -18
0 3 22 38 49 78 31 46 46 77 41 85 -4 7 -10 9 -13 4z"/>
<path d="M1934 886 c-20 -81 24 -111 81 -56 19 19 41 30 51 28 25 -4 30 -45
10 -67 -18 -20 -10 -36 10 -20 19 16 28 73 15 98 -16 30 -52 26 -86 -9 -48
-50 -97 -30 -61 25 14 22 14 25 1 25 -8 0 -17 -11 -21 -24z"/>
<path d="M1897 748 c-10 -5 -27 -23 -37 -40 l-19 -31 69 -32 c37 -18 71 -38
75 -44 7 -12 25 -5 25 9 0 6 -32 26 -71 45 -69 35 -78 49 -47 68 24 16 48 1
48 -29 0 -26 1 -26 46 -19 59 9 71 13 78 31 4 11 1 12 -12 6 -9 -5 -33 -12
-53 -16 -33 -6 -37 -4 -43 18 -8 32 -35 48 -59 34z"/>
<path d="M320 703 c-56 -20 -76 -83 -46 -142 26 -49 42 -56 81 -35 19 10 35
21 35 25 0 16 -15 16 -45 -2 l-32 -19 -17 24 c-23 36 -20 79 7 103 43 41 97
31 125 -24 11 -20 22 -32 25 -26 10 17 -41 80 -74 92 -35 12 -37 12 -59 4z"/>
<path d="M1777 585 c-15 -19 -24 -35 -19 -35 5 0 37 -23 73 -50 l64 -50 31 37
c19 21 30 43 26 52 -5 13 -6 13 -10 0 -3 -7 -14 -24 -25 -36 l-20 -22 -29 20
c-28 20 -28 22 -12 40 20 22 13 25 -16 7 -16 -10 -23 -10 -37 4 -16 16 -16 19
0 36 9 10 17 22 17 25 0 16 -17 5 -43 -28z"/>
<path d="M1707 514 c-3 -4 -2 -15 4 -26 6 -11 19 -44 29 -74 l19 -54 -32 17
c-18 9 -49 27 -71 40 -24 16 -42 21 -48 15 -8 -8 93 -75 144 -95 29 -10 29 6
1 89 -27 83 -35 99 -46 88z"/>
<path d="M450 475 c13 -14 28 -25 33 -25 6 0 0 11 -13 25 -13 14 -28 25 -33
25 -6 0 0 -11 13 -25z"/>
<path d="M567 467 c-2 -6 -25 -38 -51 -69 l-46 -56 42 -31 c22 -17 45 -28 50
-25 5 4 -4 15 -21 25 -36 22 -39 39 -11 64 16 15 22 16 35 5 9 -7 18 -10 22
-6 4 3 -2 12 -11 19 -16 12 -17 16 -5 35 17 27 20 27 47 2 11 -11 23 -16 26
-11 3 5 -10 21 -28 35 -40 30 -42 31 -49 13z"/>
<path d="M677 336 c-15 -33 -27 -71 -27 -83 0 -26 35 -53 67 -53 13 0 23 -4
23 -10 0 -5 7 -10 15 -10 8 0 15 4 15 10 0 5 15 41 34 79 44 92 24 102 -24 12
-37 -71 -59 -84 -91 -55 -25 23 -24 34 11 103 22 44 26 60 16 64 -8 3 -22 -17
-39 -57z"/>
<path d="M1531 386 c-8 -9 -9 -16 -2 -21 6 -3 27 -35 46 -70 25 -45 41 -62 51
-58 10 3 11 9 5 17 -5 6 -27 42 -49 79 -32 55 -42 65 -51 53z"/>
<path d="M1460 312 c10 -21 22 -51 26 -66 6 -27 6 -28 -17 -16 -13 7 -47 28
-76 47 -54 35 -78 42 -70 21 2 -7 15 -46 28 -85 13 -40 29 -73 36 -73 7 0 3
22 -13 61 -14 34 -23 63 -21 66 3 2 39 -17 81 -43 43 -25 80 -44 83 -41 9 9
-51 167 -64 167 -7 0 -5 -13 7 -38z"/>
<path d="M903 292 c-1 -10 -9 -46 -18 -80 -15 -59 -14 -82 4 -82 4 0 8 6 8 13
0 19 25 120 34 139 6 11 4 18 -7 22 -21 8 -20 9 -21 -12z"/>
<path d="M1228 215 c4 -71 3 -75 -21 -86 -50 -23 -77 18 -77 119 0 19 -5 32
-13 32 -17 0 -7 -131 12 -154 12 -14 24 -16 55 -12 23 3 49 6 60 6 17 1 18 7
12 53 -3 29 -6 67 -6 85 0 19 -5 32 -13 32 -9 0 -11 -19 -9 -75z"/>
</g>
</svg>
